<?xml version="1.0" encoding="UTF-8"?>
<svg version="1.1" xmlns="http://www.w3.org/2000/svg" width="2048" height="1863">
<path d="M0 0 C4.76533723 0.0171272 9.53017269 0.0068694 14.29549313 -0.01031971 C46.74954322 -0.10940816 78.88138314 1.72834813 111.08422852 5.82861328 C112.84589014 6.0473356 114.60761056 6.26558477 116.36938477 6.48339844 C119.83251588 6.91336499 123.29482225 7.34925146 126.7565918 7.79003906 C131.04945188 8.33518293 135.34536331 8.84838314 139.64282227 9.35595703 C156.58325119 11.41164705 173.1587278 14.57631513 189.82397461 18.17591858 C194.49943405 19.183288 199.18484662 20.11207526 203.8840332 21.00073242 C212.63191545 22.65996776 221.16570456 24.83997616 229.7355957 27.25292969 C234.6432703 28.63032361 239.51306623 29.8603516 244.52172852 30.82861328 C251.71572177 32.27607939 258.59716525 34.56748499 265.56201172 36.84399414 C270.25224223 38.37180791 274.89221556 39.80711599 279.70922852 40.89111328 C285.89568433 42.32773582 291.7414457 44.60615058 297.67260742 46.84423828 C301.61547299 48.32979609 305.52045955 49.76424494 309.58422852 50.89111328 C315.83376987 52.66272239 321.81764542 55.17837855 327.85375977 57.55908203 C332.16358677 59.25824269 336.49313621 60.89877108 340.83422852 62.51611328 C371.46559499 73.96537403 401.448999 87.40272774 430.52172852 102.39111328 C431.50898926 102.89707031 432.49625 103.40302734 433.51342773 103.92431641 C436.89387941 105.65808553 440.27084295 107.39847144 443.64672852 109.14111328 C445.26744263 109.97449219 445.26744263 109.97449219 446.92089844 110.82470703 C451.99266723 113.45678495 456.82294371 116.14570636 461.52172852 119.39111328 C463.34240962 120.41396783 465.17557413 121.41498568 467.02172852 122.39111328 C471.01542849 124.5361775 474.74950341 126.87629654 478.52172852 129.39111328 C480.39446019 130.31105165 482.26745477 131.2304665 484.14282227 132.14501953 C494.30826655 137.46977606 503.91076402 144.12286902 513.52172852 150.39111328 C514.14370117 150.79620117 514.76567383 151.20128906 515.40649414 151.61865234 C523.12316956 156.6593203 530.63583496 161.84751756 537.93579102 167.48095703 C540.43241002 169.39100678 540.43241002 169.39100678 542.8996582 170.80737305 C547.17958618 173.39246549 551.1290781 176.42048691 555.14672852 179.39111328 C556.00524414 180.02017578 556.86375977 180.64923828 557.74829102 181.29736328 C558.98579102 182.21001953 558.98579102 182.21001953 560.24829102 183.14111328 C560.99675293 183.69283203 561.74521484 184.24455078 562.51635742 184.81298828 C564.33171023 186.24157856 565.89503325 187.75811078 567.52172852 189.39111328 C569.17705474 190.40977557 570.8443299 191.40922141 572.52172852 192.39111328 C574.83422852 193.95361328 574.83422852 193.95361328 576.52172852 195.39111328 C576.52172852 196.05111328 576.52172852 196.71111328 576.52172852 197.39111328 C577.05797852 197.63861328 577.59422852 197.88611328 578.14672852 198.14111328 C583.08623689 200.74085453 587.3158971 203.97919976 591.49047852 207.64111328 C593.85328659 209.67676331 596.2793535 211.62354143 598.70922852 213.57861328 C603.33730498 217.34447276 607.73021342 221.29497744 612.09277344 225.35888672 C616.02737185 228.99991591 620.12306521 232.3634781 624.36547852 235.63720703 C626.5720327 237.432031 628.52622134 239.36692325 630.52172852 241.39111328 C631.49110352 242.19548828 632.46047852 242.99986328 633.45922852 243.82861328 C637.11653293 246.88880677 640.38835139 250.22535395 643.70922852 253.64111328 C646.25774208 256.13299321 648.86605271 258.51477523 651.52172852 260.89111328 C656.47595332 265.33383995 661.08170987 269.87881321 665.45922852 274.89111328 C668.58061151 278.43920219 671.88300195 281.37174442 675.52172852 284.39111328 C677.94631946 286.98139382 680.23701021 289.67736416 682.52172852 292.39111328 C685.31751118 295.69831961 688.08254039 298.95192516 691.14672852 302.01611328 C693.48241907 304.35180384 695.46027626 306.81429796 697.52172852 309.39111328 C699.18556313 311.0606072 700.85265163 312.72686032 702.52172852 314.39111328 C708.71294606 320.93879486 714.66017478 327.6159117 720.30688477 334.64111328 C721.87948837 336.59369342 723.47289047 338.52960332 725.08032227 340.45361328 C725.90661133 341.44361328 726.73290039 342.43361328 727.58422852 343.45361328 C728.71538086 344.80132812 728.71538086 344.80132812 729.86938477 346.17626953 C731.52172852 348.39111328 731.52172852 348.39111328 731.52172852 350.39111328 C732.51172852 350.72111328 733.50172852 351.05111328 734.52172852 351.39111328 C736.02954102 353.28955078 736.02954102 353.28955078 737.64672852 355.76611328 C740.17104921 359.50252951 742.80150463 363.00761746 745.70922852 366.45361328 C750.24877982 371.90575479 754.31719145 377.63853578 758.36035156 383.46557617 C760.96694515 387.21856607 763.66549614 390.82229509 766.52172852 394.39111328 C767.8742819 396.37816565 769.2076345 398.37841988 770.52172852 400.39111328 C771.40731445 401.71949219 771.40731445 401.71949219 772.31079102 403.07470703 C773.62228943 405.04195465 774.93344977 407.00942767 776.24438477 408.97705078 C777.83237435 411.35938325 779.424145 413.73914473 781.01782227 416.11767578 C790.20073538 429.83421413 799.36347648 443.63816257 807.24438477 458.15283203 C808.74238909 460.77777539 810.37404916 463.29508481 812.02172852 465.82861328 C814.72143118 470.02102411 817.05626349 474.25074166 819.21362305 478.74267578 C820.4671897 481.28069204 821.79550409 483.75457326 823.16625977 486.23095703 C827.10203348 493.41562039 830.88751408 500.67542508 834.64672852 507.95361328 C835.01623627 508.66889191 835.38574402 509.38417053 835.76644897 510.12112427 C844.04087172 526.17361583 852.02274147 542.39410883 858.64355469 559.20874023 C859.74618334 561.94891191 860.99033862 564.60534485 862.27172852 567.26611328 C868.54900209 580.75121104 873.73206093 594.70524941 878.73217773 608.70532227 C880.29029223 613.06027274 881.90070971 617.37788263 883.63891602 621.66455078 C885.06872118 625.20234874 886.32738138 628.72478023 887.39672852 632.39111328 C888.72856229 636.84443245 890.13793696 641.25660222 891.63598633 645.65576172 C895.05290042 655.69596243 898.01121525 665.83558101 900.86206055 676.04931641 C901.74156175 679.17151311 902.66637805 682.28000567 903.58422852 685.39111328 C905.4617033 691.95451686 907.0394483 698.57820439 908.59179688 705.22436523 C909.63291778 709.67895805 910.69720594 714.12307067 911.84594727 718.55126953 C912.06387939 719.39608887 912.28181152 720.2409082 912.50634766 721.11132812 C912.90936519 722.66409029 913.31791835 724.2154366 913.734375 725.76464844 C915.30903465 731.86186933 916.32270977 738.01308436 917.3263092 744.22343445 C918.20816308 749.63513385 919.19621841 755.01545668 920.27563477 760.39111328 C920.42385681 761.13295364 920.57207886 761.87479401 920.72479248 762.63911438 C921.32625329 765.64086591 921.93082891 768.64191841 922.54492188 771.64111328 C924.52614359 781.34815174 926.04351114 790.97499058 927.04541016 800.83154297 C927.51716022 805.46947427 928.10264512 810.08894652 928.70532227 814.71142578 C928.91334473 816.33898651 929.12102331 817.96659122 929.32836914 819.59423828 C929.63678668 822.01196464 929.94766415 824.42917547 930.26904297 826.84521484 C934.61949809 859.68479871 936.03222505 892.56476451 935.9128418 925.66357422 C935.89575148 930.43563864 935.9059468 935.20720065 935.92316055 939.97924805 C936.0238693 972.96134195 934.22896059 1005.66617005 930.02172852 1038.39111328 C929.79944234 1040.16820836 929.57786028 1041.94539164 929.35693359 1043.72265625 C929.03268833 1046.32654013 928.70740359 1048.9302566 928.37739563 1051.53341675 C927.81108702 1056.00549751 927.28261891 1060.47771573 926.81469727 1064.96142578 C924.99651274 1081.96611313 921.42540074 1098.63148111 917.95321655 1115.36030579 C916.89450965 1120.48558 915.91921408 1125.62051357 914.98657227 1130.77001953 C913.66871625 1137.88608605 911.96764107 1144.84358009 910.08422852 1151.82861328 C908.09487641 1159.32793698 906.14951041 1166.818687 904.45922852 1174.39111328 C902.74395824 1181.96410581 900.42633824 1189.30276162 898.02954102 1196.68408203 C896.57806604 1201.16484246 895.25753749 1205.67654704 893.95922852 1210.20361328 C892.11586239 1216.58982336 889.99084811 1222.8281878 887.70141602 1229.07080078 C886.56111808 1232.28024861 885.55470527 1235.50178237 884.58422852 1238.76611328 C880.42985754 1252.48712338 874.82865616 1265.73939285 869.47241211 1279.02392578 C868.59192545 1281.21632401 867.72043635 1283.41197565 866.85375977 1285.60986328 C864.36211224 1291.92119781 861.78904483 1298.16702675 858.92456055 1304.31933594 C857.65531745 1307.09859398 856.43288788 1309.89446738 855.22444153 1312.70057678 C851.17737807 1322.07605735 846.8148077 1331.27882231 842.33422852 1340.45361328 C841.96688599 1341.20792633 841.59954346 1341.96223938 841.22106934 1342.7394104 C836.51016019 1352.40732666 831.73536434 1362.03744642 826.77172852 1371.57861328 C826.07527222 1372.9196814 826.07527222 1372.9196814 825.36474609 1374.2878418 C822.96252347 1378.85060675 820.41337142 1383.25850163 817.64233398 1387.60668945 C816.13954882 1389.99968657 814.79196962 1392.4626125 813.45922852 1394.95361328 C809.57407673 1402.19656939 805.434362 1409.25616111 801.14672852 1416.26611328 C800.6563208 1417.06839355 800.16591309 1417.87067383 799.66064453 1418.69726562 C796.89984182 1423.19611392 794.0833718 1427.63622702 791.10766602 1431.99658203 C788.85759734 1435.3938532 786.72947183 1438.86450442 784.58422852 1442.32861328 C781.23426403 1447.72733698 777.78823606 1453.01205286 774.08813477 1458.18017578 C772.5708136 1460.3218311 771.13642614 1462.50119688 769.70922852 1464.70361328 C766.79370726 1469.11188142 763.58417266 1473.27526899 760.34155273 1477.4440918 C756.92445148 1481.84218213 753.64268615 1486.32657884 750.38500977 1490.84423828 C748.10019612 1493.96729593 745.72004369 1497.00658073 743.32250977 1500.04345703 C740.50737768 1503.71350993 737.86861817 1507.5092222 735.22094727 1511.30126953 C734.66020508 1511.99091797 734.09946289 1512.68056641 733.52172852 1513.39111328 C732.86172852 1513.39111328 732.20172852 1513.39111328 731.52172852 1513.39111328 C731.2478833 1513.97812012 730.97403809 1514.56512695 730.69189453 1515.16992188 C729.55733429 1517.32352694 728.33278189 1519.04639998 726.79907227 1520.93017578 C726.26499756 1521.58808105 725.73092285 1522.24598633 725.18066406 1522.92382812 C724.61259033 1523.61428223 724.0445166 1524.30473633 723.45922852 1525.01611328 C722.582948 1526.08853271 722.582948 1526.08853271 721.68896484 1527.18261719 C717.78038825 1531.93822212 713.74610826 1536.54983863 709.58032227 1541.08251953 C706.6739927 1544.34179993 704.0038562 1547.77392733 701.30297852 1551.20361328 C699.20508798 1553.77997008 696.90239583 1556.07657562 694.52172852 1558.39111328 C693.86172852 1559.21611328 693.20172852 1560.04111328 692.52172852 1560.89111328 C690.34706966 1563.60943685 688.01214047 1565.95604382 685.52172852 1568.39111328 C679.41921501 1574.30388057 679.41921501 1574.30388057 673.77172852 1580.64111328 C670.24054371 1584.95700583 666.27949179 1588.61194761 662.08422852 1592.26611328 C658.67590089 1595.26182413 655.72847473 1598.36733414 652.85375977 1601.86767578 C650.97515984 1604.01622116 648.77879322 1605.65490966 646.52172852 1607.39111328 C644.01993015 1609.83036669 641.58504588 1612.32612967 639.14672852 1614.82861328 C636.64185223 1617.27384965 634.05670984 1619.53188351 631.36547852 1621.76611328 C629.89867622 1623.05888819 628.49796229 1624.42655111 627.12329102 1625.81689453 C624.65339078 1628.26083486 622.11405381 1630.41692018 619.39672852 1632.57861328 C615.46459529 1635.75598805 611.67593722 1639.02686057 607.95922852 1642.45361328 C602.99311231 1647.01764337 597.82896728 1651.23363739 592.52172852 1655.39111328 C590.72878501 1656.82702041 588.93710007 1658.26450057 587.14672852 1659.70361328 C585.60929333 1660.93806857 584.06795885 1662.16769244 582.52172852 1663.39111328 C581.45051758 1664.24769531 581.45051758 1664.24769531 580.35766602 1665.12158203 C578.52172852 1666.39111328 578.52172852 1666.39111328 576.52172852 1666.39111328 C576.19172852 1667.38111328 575.86172852 1668.37111328 575.52172852 1669.39111328 C573.69360352 1670.86376953 573.69360352 1670.86376953 571.27172852 1672.45361328 C567.02988093 1675.32202598 562.93931047 1678.315324 558.89672852 1681.45361328 C558.06141602 1682.10003784 558.06141602 1682.10003784 557.20922852 1682.75952148 C555.64627568 1683.96946735 554.08398291 1685.18026573 552.52172852 1686.39111328 C548.55186169 1689.44642034 544.55479088 1692.40013055 540.37329102 1695.16064453 C536.40013678 1697.79780135 532.46169068 1700.48112818 528.53393555 1703.18530273 C517.78714338 1710.5832019 506.86301918 1717.58937167 495.73657227 1724.40283203 C492.66338269 1726.30350457 489.62143991 1728.24611611 486.58422852 1730.20361328 C482.97820605 1732.51250536 479.35161212 1734.47617148 475.52172852 1736.39111328 C473.72234086 1737.52478322 471.93155018 1738.67214664 470.14672852 1739.82861328 C466.35829382 1742.27243486 462.59769048 1744.43426528 458.53344727 1746.37158203 C456.1993546 1747.55449113 454.00031351 1748.89494891 451.77172852 1750.26611328 C446.18593938 1753.66172977 440.38937272 1756.51912818 434.52172852 1759.39111328 C431.85258911 1760.71951394 429.18733173 1762.05563442 426.52172852 1763.39111328 C425.14025231 1764.08128593 423.7587424 1764.77139113 422.37719727 1765.46142578 C420.10614075 1766.59667715 417.83804797 1767.73702847 415.57250977 1768.88330078 C409.05298576 1772.1756139 402.48242931 1775.35879837 395.89672852 1778.51611328 C395.0257251 1778.93618652 394.15472168 1779.35625977 393.25732422 1779.7890625 C388.17348053 1782.21560599 383.0523657 1784.43290737 377.80786133 1786.48876953 C374.74368447 1787.69820969 371.72814991 1789.01080116 368.70922852 1790.32861328 C363.07399882 1792.75853898 357.39365346 1795.00899348 351.65454102 1797.18017578 C348.66406108 1798.33609695 345.7192099 1799.56770163 342.77172852 1800.82861328 C337.1478586 1803.20048415 331.43203976 1805.22779601 325.66821289 1807.22631836 C321.8246806 1808.56299234 318.03139042 1809.95469018 314.27172852 1811.51611328 C309.6652059 1813.40200509 304.96829548 1814.83384504 300.20141602 1816.25830078 C296.76270132 1817.31692845 293.35954522 1818.44770321 289.95385742 1819.60644531 C282.52723934 1822.13228135 275.10570287 1824.37697087 267.50219727 1826.32470703 C261.98271793 1827.76622538 256.53978789 1829.4818119 251.1003418 1831.19775391 C245.15799446 1833.02919002 239.17149121 1834.35454897 233.08544922 1835.62084961 C228.67660435 1836.57377867 224.32496406 1837.69840918 219.96166992 1838.83911133 C204.45629736 1842.88274988 188.87352727 1845.93633739 173.1081543 1848.74316406 C169.98874404 1849.30673893 166.87766173 1849.89845947 163.76782227 1850.51220703 C149.45108264 1853.30954731 135.03100134 1855.04149212 120.5471344 1856.69615173 C116.36094746 1857.17476165 112.17873459 1857.6773125 107.99829102 1858.20361328 C74.83584808 1862.33539967 41.85156232 1863.89650143 8.45092773 1863.78222656 C3.40179613 1863.76511293 -1.64686157 1863.77533771 -6.69597721 1863.79254532 C-31.76965806 1863.86496467 -56.53567155 1862.98988518 -81.47827148 1860.39111328 C-82.57417603 1860.27709167 -83.67008057 1860.16307007 -84.79919434 1860.04559326 C-90.80699615 1859.40412191 -96.7997007 1858.67202145 -102.79077148 1857.89111328 C-104.53043861 1857.66962626 -106.27018671 1857.4487744 -108.01000977 1857.22851562 C-110.56645656 1856.90454856 -113.12278508 1856.57984096 -115.6786499 1856.25131226 C-120.17175419 1855.6748803 -124.66570043 1855.13519465 -129.16967773 1854.64892578 C-142.53264813 1853.18228556 -155.60980962 1850.72289695 -168.76293945 1847.99121094 C-169.46527206 1847.84535049 -170.16760468 1847.69949005 -170.89122009 1847.54920959 C-172.30227436 1847.2560092 -173.71321388 1846.96225598 -175.1240387 1846.66795349 C-180.0907387 1845.64360718 -185.0718407 1844.76183657 -190.07202148 1843.91845703 C-198.19346321 1842.53102034 -206.08215244 1840.58376758 -214.04077148 1838.45361328 C-216.0857482 1837.91359381 -218.13126453 1837.37565043 -220.17678833 1836.83770752 C-222.13004934 1836.3236243 -224.08273371 1835.80735171 -226.03540039 1835.29101562 C-230.08875155 1834.23154517 -234.15418649 1833.2424107 -238.22827148 1832.26611328 C-244.81622449 1830.64079593 -251.24441984 1828.61938437 -257.69604492 1826.52905273 C-261.93220057 1825.16384822 -266.13342864 1823.93666432 -270.47827148 1822.95361328 C-276.65332909 1821.49862075 -282.48702997 1819.2492884 -288.41088867 1817.01074219 C-292.98067947 1815.28956949 -297.53940535 1813.70463072 -302.22827148 1812.32861328 C-307.67562932 1810.71869351 -312.86146279 1808.68957776 -318.10644531 1806.52929688 C-321.50888949 1805.13944838 -324.86994218 1803.91741252 -328.41577148 1802.95361328 C-333.63406305 1801.48867761 -338.46419487 1799.28116829 -343.3996582 1797.07226562 C-347.40841217 1795.28239297 -351.42349112 1793.60897807 -355.54077148 1792.07861328 C-361.84835784 1789.69645081 -368.03831101 1787.06299284 -374.22827148 1784.39111328 C-375.19901611 1783.97563232 -376.16976074 1783.56015137 -377.16992188 1783.13208008 C-382.44007781 1780.84151123 -387.49667276 1778.3864826 -392.45947266 1775.48608398 C-394.60277767 1774.32358272 -396.7607182 1773.43822192 -399.04077148 1772.57861328 C-409.64712696 1768.48406675 -419.66607093 1762.96248605 -429.47387695 1757.24926758 C-433.04207764 1755.17975181 -436.64845501 1753.2660774 -440.35327148 1751.45361328 C-447.90420605 1747.74315405 -455.18913843 1743.58658342 -462.47827148 1739.39111328 C-463.22431641 1738.96185547 -463.97036133 1738.53259766 -464.73901367 1738.09033203 C-467.00961184 1736.77959082 -469.27602936 1735.46194368 -471.54077148 1734.14111328 C-472.57560669 1733.54121582 -472.57560669 1733.54121582 -473.63134766 1732.92919922 C-476.90033855 1731.00939773 -480.04130654 1729.02437053 -483.09936523 1726.78173828 C-486.07957343 1724.60493086 -489.15468019 1723.00717143 -492.47827148 1721.39111328 C-494.73244604 1720.02241088 -496.95516391 1718.63847657 -499.16577148 1717.20361328 C-499.77155029 1716.81286621 -500.3773291 1716.42211914 -501.00146484 1716.01953125 C-505.81763868 1712.88462382 -510.47562098 1709.56258962 -515.07592773 1706.11767578 C-517.47705457 1704.39198787 -519.94128536 1702.90887354 -522.47827148 1701.39111328 C-525.12648166 1699.65396293 -527.74049886 1697.86848462 -530.35327148 1696.07861328 C-531.03518555 1695.61777344 -531.71709961 1695.15693359 -532.41967773 1694.68212891 C-536.47073142 1691.90812167 -540.24096117 1688.9849895 -543.89086914 1685.69897461 C-545.51563766 1684.36032728 -547.12711721 1683.38775102 -548.97827148 1682.39111328 C-551.49474824 1681.03317462 -553.54704872 1679.56373912 -555.68139648 1677.66064453 C-559.56128554 1674.27804569 -563.61964354 1671.17631049 -567.72827148 1668.07861328 C-576.60023406 1661.33941711 -585.23560107 1654.40907186 -593.57202148 1647.01220703 C-595.54390416 1645.33529861 -597.57858173 1643.7964595 -599.66577148 1642.26611328 C-602.90900719 1639.8793437 -605.6615977 1637.27820391 -608.47827148 1634.39111328 C-609.63662023 1633.36085118 -610.80436242 1632.34110985 -611.97827148 1631.32861328 C-615.77094522 1628.04162937 -619.476777 1624.66833633 -623.16577148 1621.26611328 C-623.71233398 1620.76329834 -624.25889648 1620.2604834 -624.82202148 1619.74243164 C-627.29718652 1617.45433428 -629.724777 1615.14424149 -632.10717773 1612.75830078 C-634.2486551 1610.62035138 -636.44692803 1608.62703097 -638.72827148 1606.64111328 C-662.10578381 1585.61539273 -662.10578381 1585.61539273 -669.47827148 1572.39111328 C-669.94104492 1571.57771484 -670.40381836 1570.76431641 -670.88061523 1569.92626953 C-682.78604607 1547.59906338 -685.70451227 1522.48731808 -678.84399414 1498.14013672 C-676.12055132 1489.23160684 -672.79181004 1481.09440913 -667.47827148 1473.39111328 C-666.94459961 1472.57513672 -666.41092773 1471.75916016 -665.86108398 1470.91845703 C-660.42432706 1462.81343 -654.23750083 1454.09118756 -645.47827148 1449.39111328 C-644.81827148 1449.39111328 -644.15827148 1449.39111328 -643.47827148 1449.39111328 C-643.47827148 1448.73111328 -643.47827148 1448.07111328 -643.47827148 1447.39111328 C-630.78469795 1439.79040208 -618.45923694 1432.95841537 -603.47827148 1431.39111328 C-602.52952148 1431.28154297 -601.58077148 1431.17197266 -600.60327148 1431.05908203 C-575.68872697 1428.46381698 -553.39027196 1433.44977963 -532.47827148 1447.39111328 C-532.47827148 1448.05111328 -532.47827148 1448.71111328 -532.47827148 1449.39111328 C-531.94202148 1449.63861328 -531.40577148 1449.88611328 -530.85327148 1450.14111328 C-525.94560536 1452.72409545 -522.32514979 1455.37641557 -518.88452148 1459.75439453 C-515.59130067 1463.58733764 -511.51016407 1466.71778997 -507.61889648 1469.92236328 C-504.69784164 1472.35226731 -502.11311473 1474.73959382 -499.72827148 1477.70361328 C-496.43152229 1481.68936561 -492.51234055 1484.71826753 -488.47827148 1487.93017578 C-485.32283078 1490.51862323 -482.33455612 1493.23202498 -479.35327148 1496.01611328 C-474.60090886 1500.43988354 -469.66676921 1504.49168331 -464.47827148 1508.39111328 C-463.61202148 1509.09236328 -462.74577148 1509.79361328 -461.85327148 1510.51611328 C-459.37785946 1512.47038593 -456.82720075 1514.26805771 -454.22436523 1516.04736328 C-452.47827148 1517.39111328 -452.47827148 1517.39111328 -450.55249023 1519.33251953 C-448.43705321 1521.43202106 -446.2791675 1523.09968104 -443.85327148 1524.82861328 C-442.40694336 1525.86501953 -442.40694336 1525.86501953 -440.93139648 1526.92236328 C-440.3893457 1527.30908203 -439.84729492 1527.69580078 -439.28881836 1528.09423828 C-437.2572784 1529.54940822 -435.23455349 1531.01633915 -433.21264648 1532.48486328 C-414.77736263 1545.86808478 -396.06425333 1558.66190553 -376.43334961 1570.23779297 C-374.33642815 1571.47478809 -372.24326082 1572.71800072 -370.15014648 1573.96142578 C-359.08666909 1580.51986789 -347.92412806 1586.72072958 -336.39355469 1592.421875 C-332.40527035 1594.40056607 -328.4874828 1596.46243384 -324.60327148 1598.64111328 C-320.52186551 1600.90383016 -316.42135854 1602.6762529 -312.06420898 1604.33251953 C-309.17425951 1605.51556531 -306.44088082 1606.8973561 -303.66577148 1608.32861328 C-298.4330488 1610.99864358 -293.12072032 1613.13328871 -287.61889648 1615.18017578 C-284.73608104 1616.2917091 -281.9608519 1617.51475812 -279.16577148 1618.82861328 C-274.03310291 1621.21485393 -268.7977782 1623.21441452 -263.48681641 1625.16040039 C-259.87352951 1626.48498107 -256.29521629 1627.86578074 -252.73217773 1629.32080078 C-247.05800328 1631.60380116 -241.28597776 1633.54105011 -235.47827148 1635.45361328 C-234.46249023 1635.79199219 -233.44670898 1636.13037109 -232.40014648 1636.47900391 C-227.00623725 1638.26660075 -221.59893621 1639.98131917 -216.15014648 1641.59350586 C-213.04410946 1642.52071921 -209.94912209 1643.48122652 -206.85327148 1644.44189453 C-191.62201372 1649.13169257 -176.41192391 1653.30899937 -160.81958008 1656.65966797 C-158.40673834 1657.18786276 -155.99870181 1657.73817513 -153.59399414 1658.30224609 C-141.69130422 1661.07998858 -129.70913424 1663.10832857 -117.63696289 1665.00097656 C-114.3499581 1665.51663308 -111.06444861 1666.04109424 -107.77905273 1666.56689453 C-88.23980506 1669.67763611 -68.92329727 1671.89926314 -49.16577148 1673.01611328 C-47.44177628 1673.11366913 -47.44177628 1673.11366913 -45.68295288 1673.2131958 C14.55426386 1676.5353655 75.31593358 1674.94954907 134.64282227 1663.28564453 C138.44924079 1662.54646416 142.25863488 1662.0258206 146.10375977 1661.52783203 C154.1598727 1660.40350841 161.91399919 1658.44353292 169.77172852 1656.39111328 C172.5259968 1655.67909059 175.28139173 1654.97155023 178.03735352 1654.26611328 C179.02774628 1654.01125656 179.02774628 1654.01125656 180.03814697 1653.75125122 C183.57995961 1652.84928123 187.11570288 1652.04777765 190.70922852 1651.38330078 C196.70521832 1650.24203991 202.4604757 1648.35853974 208.27172852 1646.51611328 C210.58645826 1645.79095869 212.90155923 1645.06698793 215.21704102 1644.34423828 C216.31306641 1644.00199219 217.4090918 1643.65974609 218.53833008 1643.30712891 C222.05896559 1642.22616128 225.5936105 1641.23439948 229.14672852 1640.26611328 C234.84915219 1638.67424563 240.32774932 1636.65571434 245.84667969 1634.52905273 C249.35449463 1633.18199377 252.83654145 1631.95000599 256.45922852 1630.95361328 C262.63020381 1629.20394796 268.47241066 1626.59745552 274.37329102 1624.10986328 C277.08507301 1622.97048309 279.80881287 1621.89681189 282.56860352 1620.87939453 C286.49670512 1619.42500553 290.32054496 1617.78068815 294.14672852 1616.07861328 C295.54493282 1615.46089767 296.94337517 1614.84372062 298.34204102 1614.22705078 C299.03845703 1613.91993164 299.73487305 1613.6128125 300.45239258 1613.29638672 C304.69749766 1611.43927845 308.97019041 1609.64643333 313.24047852 1607.84814453 C317.06684137 1606.14905721 320.78942723 1604.28559344 324.52172852 1602.39111328 C325.78429695 1601.75869889 327.04731107 1601.12717339 328.31079102 1600.49658203 C330.29068067 1599.50689301 332.27030806 1598.51669436 334.24926758 1597.52514648 C337.48282744 1595.90578384 340.71925832 1594.29436399 343.96704102 1592.70361328 C351.08198745 1589.20501078 358.06860053 1585.51269075 365.02172852 1581.70361328 C365.87089844 1581.23979248 366.72006836 1580.77597168 367.5949707 1580.2980957 C372.05024944 1577.83990407 376.28687249 1575.21633324 380.52172852 1572.39111328 C382.51492626 1571.3776229 384.51498974 1570.37752064 386.52172852 1569.39111328 C394.50526551 1564.75415749 402.1064048 1559.65204705 409.65844727 1554.35205078 C411.81419624 1552.87567154 413.92317877 1551.51888996 416.20922852 1550.26611328 C422.18261885 1546.88494894 427.65848211 1542.74745266 433.20532227 1538.71533203 C433.83688232 1538.25852051 434.46844238 1537.80170898 435.11914062 1537.33105469 C436.37438721 1536.42227742 437.62658459 1535.5092715 438.87548828 1534.59179688 C443.29799157 1531.39111328 443.29799157 1531.39111328 445.52172852 1531.39111328 C445.52172852 1530.73111328 445.52172852 1530.07111328 445.52172852 1529.39111328 C447.40063477 1527.86767578 447.40063477 1527.86767578 450.08422852 1526.01611328 C456.86780627 1521.20816513 463.31121644 1516.02292238 469.77514648 1510.796875 C472.21789179 1508.83079624 474.6842922 1506.89493789 477.14672852 1504.95361328 C479.58633979 1503.00592362 481.81081271 1501.10202909 484.02172852 1498.89111328 C486.21278825 1496.70005354 488.38911658 1494.90570228 490.83422852 1493.01611328 C499.48773951 1486.20017014 507.46351121 1478.46388661 515.23657227 1470.66845703 C517.34923521 1468.56301686 519.5228421 1466.598777 521.77172852 1464.64111328 C526.74265821 1460.19343934 531.48695174 1455.53862971 536.20922852 1450.82861328 C536.92175781 1450.1205957 537.63428711 1449.41257812 538.3684082 1448.68310547 C542.36652787 1444.67384381 546.18379751 1440.56595021 549.88037109 1436.27758789 C552.35443895 1433.43404746 554.94182799 1430.70074543 557.52172852 1427.95361328 C561.60876696 1423.57164049 565.46200383 1419.12318766 569.02172852 1414.29345703 C570.70984937 1412.15253293 572.59252178 1410.31669369 574.52172852 1408.39111328 C577.59018602 1404.78048471 580.54671216 1401.07894554 583.52172852 1397.39111328 C584.16239258 1396.60607422 584.80305664 1395.82103516 585.46313477 1395.01220703 C593.5723681 1385.00686903 601.67691001 1374.77542454 608.43579102 1363.79736328 C608.79415039 1363.33330078 609.15250977 1362.86923828 609.52172852 1362.39111328 C610.18172852 1362.39111328 610.84172852 1362.39111328 611.52172852 1362.39111328 C611.74860352 1361.72724609 611.97547852 1361.06337891 612.20922852 1360.37939453 C613.91890651 1356.4868241 616.1606149 1353.10341861 618.52172852 1349.57861328 C619.19848633 1348.53930664 619.19848633 1348.53930664 619.88891602 1347.47900391 C621.04406998 1345.74456415 622.27711111 1344.06251673 623.52172852 1342.39111328 C624.18172852 1342.39111328 624.84172852 1342.39111328 625.52172852 1342.39111328 C625.61067383 1341.67181641 625.69961914 1340.95251953 625.79125977 1340.21142578 C626.66180019 1336.85030181 628.0728166 1334.99258182 630.20922852 1332.26611328 C633.70152283 1327.63679291 636.53020546 1322.94453458 639.22094727 1317.81689453 C640.80020382 1314.87179447 642.6550181 1312.16107067 644.52172852 1309.39111328 C646.24458891 1306.42167813 647.88392386 1303.40812185 649.52172852 1300.39111328 C650.43793546 1298.70336364 651.35462717 1297.01587709 652.27172852 1295.32861328 C653.02583008 1293.94029297 653.02583008 1293.94029297 653.79516602 1292.52392578 C655.0553668 1290.23731711 656.32946248 1287.96320326 657.62329102 1285.69580078 C664.85892 1273.0070972 671.44680381 1260.18441148 677.08422852 1246.70361328 C678.49634155 1243.44961368 680.03489631 1240.30030441 681.64672852 1237.14111328 C683.84006025 1232.83968292 685.72463672 1228.52805302 687.45532227 1224.02392578 C688.71998947 1220.90163385 690.14599816 1217.87469329 691.58422852 1214.82861328 C693.55619563 1210.60507178 695.23810754 1206.4825844 696.60766602 1202.03564453 C698.17727202 1197.49451946 700.10860292 1193.09229114 702.00976562 1188.68115234 C703.70783824 1184.66608779 704.96828441 1180.78995753 705.95605469 1176.52807617 C707.10007304 1172.20628391 708.81234527 1168.06666138 710.39672852 1163.89111328 C713.28174882 1156.13029269 715.66513336 1148.52405493 717.52563477 1140.45361328 C718.84149169 1134.86156946 720.59308194 1129.39163714 722.32885742 1123.91796875 C724.15502358 1118.03038946 725.48403489 1112.10161485 726.73828125 1106.06787109 C727.51373321 1102.42863564 728.36206058 1098.81536646 729.24047852 1095.19970703 C729.5330957 1093.98605469 729.82571289 1092.77240234 730.12719727 1091.52197266 C730.71729769 1089.08555366 731.31352199 1086.65060864 731.91625977 1084.21728516 C734.29958939 1074.25874707 735.78946103 1064.28557084 737.14831543 1054.14456177 C737.76708399 1049.58192749 738.43183879 1045.02602671 739.09204102 1040.46923828 C739.35142318 1038.66458922 739.61053831 1036.85990176 739.86938477 1035.05517578 C740.26137229 1032.32362084 740.65379101 1029.59213176 741.04760742 1026.86083984 C741.43875517 1024.14716283 741.82806668 1021.43322758 742.21704102 1018.71923828 C742.33371124 1017.91286926 742.45038147 1017.10650024 742.57058716 1016.2756958 C743.73120307 1008.152973 744.62657696 1000.05886861 745.05688477 991.86376953 C745.10004318 991.05883057 745.1432016 990.2538916 745.18766785 989.42456055 C748.42413346 927.28205968 747.49052443 865.2094786 735.96582031 803.92553711 C735.46522716 801.06866108 735.06272401 798.20402136 734.65454102 795.33251953 C733.43104146 787.26014005 731.50701892 779.3814937 729.58422852 771.45361328 C728.8852013 768.54924085 728.18937535 765.6441102 727.49438477 762.73876953 C727.32424866 762.03105911 727.15411255 761.32334869 726.9788208 760.5941925 C725.90238524 756.08765136 724.9176095 751.56940866 723.97875977 747.03173828 C722.68982551 740.92967854 721.02902684 735.02122308 719.14672852 729.07861328 C718.52611062 727.08538077 717.90632536 725.09188882 717.28735352 723.09814453 C716.98635742 722.13215332 716.68536133 721.16616211 716.37524414 720.17089844 C715.37689463 716.91940886 714.43464499 713.65419839 713.50146484 710.38354492 C711.56617885 703.60730937 709.32007721 697.04323501 706.70141602 690.49658203 C705.5047929 687.3465311 704.5282877 684.18760115 703.58422852 680.95361328 C701.79680078 674.94465906 699.41992976 669.31583501 696.88891602 663.58642578 C695.81122499 661.0677079 694.88866139 658.62803729 694.08422852 656.01611328 C692.49515682 650.95567664 690.29410839 646.17349341 688.14135742 641.33398438 C686.49544274 637.63089371 684.9140098 633.92476713 683.45922852 630.14111328 C681.18728314 624.3701803 678.33978299 618.91034439 675.52172852 613.39111328 C674.22511975 610.81024441 672.93627325 608.22551723 671.64672852 605.64111328 C670.96059367 604.26998797 670.2743952 602.89889449 669.58813477 601.52783203 C668.23629662 598.82479129 666.89022122 596.11900364 665.54907227 593.41064453 C662.05418418 586.36350387 658.49563733 579.35337821 654.83422852 572.39111328 C654.29971069 571.36836304 654.29971069 571.36836304 653.75439453 570.32495117 C651.55331444 566.16735545 649.18542719 562.16027187 646.65307617 558.19555664 C645.2259088 555.91929551 643.93211094 553.57222678 642.61547852 551.23095703 C641.34961682 549.10159681 639.97627382 547.06511874 638.58422852 545.01611328 C636.54437211 542.00245608 634.690269 538.96690513 632.95922852 535.76611328 C631.10492544 532.34370182 629.07219802 529.20314658 626.73266602 526.09423828 C625.52172852 524.39111328 625.52172852 524.39111328 624.08813477 521.99658203 C622.523216 519.39358748 620.84106174 516.93039598 619.08422852 514.45361328 C618.47579102 513.58865234 617.86735352 512.72369141 617.24047852 511.83251953 C616.67329102 511.02685547 616.10610352 510.22119141 615.52172852 509.39111328 C611.52172852 503.70506677 611.52172852 503.70506677 611.52172852 501.39111328 C610.53172852 501.06111328 609.54172852 500.73111328 608.52172852 500.39111328 C606.52776594 497.73027359 604.52172852 494.77869003 604.52172852 491.39111328 C603.53172852 491.06111328 602.54172852 490.73111328 601.52172852 490.39111328 C599.97099216 488.40030309 598.55134999 486.41862234 597.14672852 484.32861328 C592.7684982 477.99587486 588.07235255 472.00424196 583.16479492 466.07446289 C580.5005738 462.84954999 577.91808486 459.60062528 575.44360352 456.22705078 C573.03722759 452.98700382 570.44214244 450.18754737 567.52172852 447.39111328 C565.57793762 445.39528069 563.67259895 443.36526017 561.77172852 441.32861328 C561.27801758 440.81234375 560.78430664 440.29607422 560.27563477 439.76416016 C557.68743459 436.98095859 556.39740753 435.03166771 555.52172852 431.39111328 C554.21420287 430.67515315 552.87645519 430.01315657 551.52172852 429.39111328 C549.77563477 427.62158203 549.77563477 427.62158203 548.08422852 425.57861328 C545.38052083 422.33541868 542.51646259 419.36839866 539.52172852 416.39111328 C537.7023179 414.56078184 535.88333167 412.73002848 534.06469727 410.89892578 C532.48688842 409.31373117 530.90859218 407.72902362 529.33007812 406.14453125 C528.25397472 405.06340311 527.17877108 403.98137861 526.10449219 402.8984375 C520.65238751 397.40370561 515.20338575 391.95982092 509.31201172 386.9296875 C506.29888108 384.34019489 503.41952787 381.60808208 500.52172852 378.89111328 C493.44878767 372.2994589 486.32758873 365.95042206 478.65454102 360.05908203 C476.82999045 358.63218993 475.07503395 357.16759845 473.33422852 355.64111328 C468.11922034 351.10685209 462.61421563 346.92163529 457.1652832 342.67480469 C455.7619464 341.57873444 454.36393361 340.47585339 452.96704102 339.37158203 C448.45423216 335.81433234 443.83543218 332.46550243 439.10766602 329.19970703 C436.4612477 327.34881326 433.86704292 325.43786368 431.27172852 323.51611328 C426.51188901 320.03543856 421.61942437 316.83127332 416.64160156 313.67675781 C413.21905679 311.50247933 409.87564284 309.25852591 406.58422852 306.89111328 C393.79897866 297.83053524 379.74418428 290.34186063 366.03344727 282.78955078 C364.0073563 281.66149392 361.99151783 280.51917778 359.97875977 279.36767578 C347.51405538 272.25536212 334.78467377 265.83680321 321.75292969 259.83081055 C318.21570252 258.19813543 314.73165708 256.49360787 311.27172852 254.70361328 C307.09463612 252.58410017 302.83812432 251.02167358 298.42016602 249.48095703 C295.30473604 248.30952177 292.34004159 246.94480221 289.33422852 245.51611328 C283.08436322 242.56974821 276.72193799 240.13867848 270.24047852 237.76611328 C267.24095788 236.65704683 264.28641398 235.49299555 261.33422852 234.26611328 C256.67766726 232.37873629 251.92319658 230.95342463 247.11157227 229.51611328 C243.20348334 228.2913803 239.36984319 226.91477481 235.52172852 225.51611328 C227.25709296 222.53421383 218.8653009 220.12664461 210.40454102 217.77001953 C206.45489164 216.66784465 202.54905506 215.46443869 198.64672852 214.20361328 C193.18188255 212.49802441 187.70383947 211.38835836 182.08032227 210.33886719 C177.84803293 209.49816258 173.69389472 208.42320197 169.52145386 207.32759094 C156.08141838 203.81734605 142.61270189 201.3432097 128.89672852 199.20361328 C126.83148032 198.87182625 124.7663757 198.53914433 122.70141602 198.20556641 C116.64647544 197.23386792 110.58575229 196.30423029 104.52172852 195.39111328 C103.59254608 195.24940704 102.66336365 195.10770081 101.70602417 194.96170044 C87.28065718 192.7831378 72.89810249 191.50655377 58.33422852 190.70361328 C56.6667305 190.60980377 56.6667305 190.60980377 54.96554565 190.51409912 C0.57787851 187.52065334 -54.69512472 188.11715446 -108.47827148 197.39111328 C-109.62424805 197.58382812 -110.77022461 197.77654297 -111.95092773 197.97509766 C-116.77548695 198.7867856 -121.59505757 199.61843025 -126.40795898 200.49658203 C-130.12625174 201.17457391 -133.84964821 201.73081913 -137.59155273 202.26220703 C-145.44222328 203.4553478 -153.09426236 205.34932745 -160.79077148 207.26611328 C-162.18582951 207.60906708 -163.58101164 207.95151643 -164.97631836 208.29345703 C-168.45438782 209.14740603 -171.93025303 210.00995722 -175.40539551 210.87573242 C-177.47166073 211.38946964 -179.53883137 211.89941938 -181.60620117 212.40869141 C-201.86912315 217.41423508 -221.73896134 223.191344 -241.26782227 230.57177734 C-244.12624964 231.63129604 -247.01374208 232.58345576 -249.91577148 233.51611328 C-255.62940565 235.37961178 -261.17670811 237.62021036 -266.73999023 239.88330078 C-270.21581269 241.29515744 -273.71801957 242.62946131 -277.22827148 243.95361328 C-282.02362768 245.79038002 -286.69807458 247.78840542 -291.35327148 249.95361328 C-293.76134624 251.06132767 -296.17509236 252.14156034 -298.60327148 253.20361328 C-308.04141631 257.33530251 -317.3064327 261.70197266 -326.48413086 266.38232422 C-328.54274804 267.42373046 -330.61033213 268.44501701 -332.68139648 269.46142578 C-339.36683139 272.74892385 -345.87790784 276.11454491 -352.21655273 280.04345703 C-354.44702445 281.37249458 -356.70143334 282.51650684 -359.04077148 283.64111328 C-380.41492387 294.12843104 -400.99969607 307.88672199 -420.14233398 321.97705078 C-425.52194226 325.90233831 -431.01489946 329.67183477 -436.48608398 333.46777344 C-440.59099575 336.32575452 -444.62673583 339.19399785 -448.47827148 342.39111328 C-449.27104492 343.04208984 -450.06381836 343.69306641 -450.88061523 344.36376953 C-451.7172168 345.05341797 -452.55381836 345.74306641 -453.41577148 346.45361328 C-456.54305046 349.02184911 -459.68188228 351.56211295 -462.88452148 354.03564453 C-469.81099051 359.3862961 -476.41434568 364.91909176 -482.80639648 370.89892578 C-485.64656165 373.54808569 -488.55238476 376.10476338 -491.48608398 378.64892578 C-494.69737116 381.4572279 -497.85376313 384.32617341 -501.01733398 387.18798828 C-503.27021413 389.20485241 -505.55517068 391.17619437 -507.85327148 393.14111328 C-510.7714367 395.67408069 -513.08134621 398.35500793 -515.47827148 401.39111328 C-517.47827148 403.05777995 -519.47827148 404.72444661 -521.47827148 406.39111328 C-522.81654452 408.05381615 -524.15016934 409.7202751 -525.47827148 411.39111328 C-526.24139648 411.98923828 -527.00452148 412.58736328 -527.79077148 413.20361328 C-531.48944349 416.21416027 -534.39810608 419.76467923 -537.47827148 423.39111328 C-538.6835697 424.78956827 -539.89184044 426.18546758 -541.10327148 427.57861328 C-541.63178711 428.19091797 -542.16030273 428.80322266 -542.70483398 429.43408203 C-544.8822837 431.83695055 -547.18370979 434.1000177 -549.47827148 436.39111328 C-556.13746132 443.46925877 -562.38352386 450.82595451 -568.47827148 458.39111328 C-570.08102237 460.35060549 -571.68516884 462.30895711 -573.29077148 464.26611328 C-578.91423736 471.07044735 -578.91423736 471.07044735 -584.10327148 478.20361328 C-584.88702148 479.25548828 -585.67077148 480.30736328 -586.47827148 481.39111328 C-587.13827148 481.39111328 -587.79827148 481.39111328 -588.47827148 481.39111328 C-588.74897461 481.95314453 -589.01967773 482.51517578 -589.29858398 483.09423828 C-593.21840093 490.72619975 -598.30079659 497.58388586 -603.47827148 504.39111328 C-608.15303344 510.53984086 -612.44910593 516.79611096 -616.47827148 523.39111328 C-617.61995403 525.2062307 -618.76587581 527.01868781 -619.91577148 528.82861328 C-620.7781543 530.18792969 -620.7781543 530.18792969 -621.65795898 531.57470703 C-623.57675053 534.54348108 -625.5556875 537.46632224 -627.54077148 540.39111328 C-630.71889866 545.12449419 -633.50774299 549.96030404 -636.17358398 554.99658203 C-637.76599225 557.91917564 -639.63294645 560.62312573 -641.47827148 563.39111328 C-642.47342943 565.31817761 -643.41470763 567.26779556 -644.36108398 569.21923828 C-645.54522837 571.52128121 -646.86299409 573.69190969 -648.22827148 575.89111328 C-652.03433923 582.145305 -655.2046805 588.69320554 -658.4284668 595.25927734 C-660.17788307 598.8118129 -661.95433583 602.35077639 -663.72827148 605.89111328 C-664.66433509 607.76276461 -665.60004586 609.63458662 -666.53442383 611.50708008 C-667.1975667 612.83079283 -667.86493829 614.15239147 -668.53540039 615.47241211 C-670.30139111 618.96168764 -671.97205139 622.41509142 -673.35327148 626.07861328 C-674.88663268 630.01724694 -676.60208013 633.82354811 -678.41577148 637.64111328 C-681.07427571 643.32550296 -683.2217652 649.0849951 -685.27124023 655.01220703 C-686.36412358 658.07157304 -687.56591285 661.034641 -688.85327148 664.01611328 C-694.08298428 676.35034156 -698.19436154 689.17332467 -702.10717773 701.97705078 C-703.13664951 705.32965305 -704.21896182 708.66228002 -705.31811523 711.99267578 C-710.01989157 726.29934605 -714.07499766 740.68837593 -717.70874023 755.30249023 C-718.23046622 757.39651163 -718.75934475 759.48876153 -719.29467773 761.5793457 C-720.69381679 767.06487957 -721.93904676 772.49234402 -722.85327148 778.07861328 C-724.27568352 786.52708836 -725.95796827 794.91715692 -727.67700195 803.30981445 C-729.9824587 814.6502924 -731.76418738 825.93696182 -732.91577148 837.45361328 C-733.10200073 839.28025513 -733.10200073 839.28025513 -733.29199219 841.14379883 C-734.86772416 856.87642059 -736.17438165 872.63403089 -737.47827148 888.39111328 C-736.69581055 887.44115479 -735.91334961 886.49119629 -735.10717773 885.51245117 C-733.06469548 883.0327448 -730.94836541 880.89532493 -728.47827148 878.82861328 C-725.32882275 876.13662637 -722.37484114 873.35833098 -719.47827148 870.39111328 C-709.38917114 860.11689183 -709.38917114 860.11689183 -705.47827148 857.39111328 C-704.81827148 857.39111328 -704.15827148 857.39111328 -703.47827148 857.39111328 C-703.47827148 856.73111328 -703.47827148 856.07111328 -703.47827148 855.39111328 C-681.76442129 839.09709533 -654.18568432 835.39421636 -627.84936523 839.11743164 C-611.27548775 841.99902625 -594.87568043 851.20589543 -582.47827148 862.39111328 C-582.47827148 863.05111328 -582.47827148 863.71111328 -582.47827148 864.39111328 C-581.48827148 864.72111328 -580.49827148 865.05111328 -579.47827148 865.39111328 C-576.56677639 868.52413517 -574.06130738 871.98533262 -571.47827148 875.39111328 C-570.88530273 876.12330078 -570.29233398 876.85548828 -569.68139648 877.60986328 C-555.58717746 895.97113944 -550.45685175 921.00539867 -553.16577148 943.70361328 C-555.14529599 957.8734788 -560.28154753 975.22538108 -569.78081703 986.37991047 C-570.92279758 987.73296856 -572.034725 989.11191014 -573.11668968 990.51342297 C-580.79842242 1000.33206309 -589.7391236 1008.92489697 -598.55493164 1017.71069336 C-600.38766438 1019.54450047 -602.21996374 1021.3787408 -604.05186462 1023.21337891 C-608.49055495 1027.65708021 -612.93451734 1032.09547187 -617.38035609 1036.53202007 C-622.5653119 1041.70653401 -627.74497805 1046.88632972 -632.92447262 1052.06630918 C-642.16811354 1061.31044939 -651.41655818 1070.54976851 -660.66772461 1079.78637695 C-669.63196975 1088.73652305 -678.59269323 1097.69017553 -687.54956055 1106.64770508 C-688.10180639 1107.19999087 -688.65405223 1107.75227667 -689.22303279 1108.3212984 C-689.77435273 1108.8726587 -690.32567268 1109.424019 -690.89369929 1109.99208719 C-701.11371055 1120.21278913 -711.33701082 1130.43019562 -721.56184144 1140.64607612 C-725.16918045 1144.25040617 -728.77554924 1147.85570526 -732.38161087 1151.46131325 C-737.23662353 1156.31557062 -742.09443286 1161.16701502 -746.95408821 1166.01662445 C-748.7355063 1167.795126 -750.51608481 1169.57446896 -752.29575539 1171.35471916 C-754.72746735 1173.78692332 -757.16223915 1176.21602317 -759.59780884 1178.6443634 C-760.2988872 1179.34699037 -760.99996557 1180.04961733 -761.72228873 1180.77353603 C-779.80462275 1198.76749918 -803.93950001 1212.41982369 -830.06054688 1212.72119141 C-849.21915515 1212.59192332 -868.58488735 1208.82534974 -884.47827148 1197.39111328 C-885.55711905 1196.67152732 -885.55711905 1196.67152732 -886.65776151 1195.93740427 C-892.75081238 1191.82651176 -897.96878534 1187.33053238 -903.13710022 1182.1199646 C-903.94783774 1181.31461261 -904.75857527 1180.50926063 -905.59388059 1179.67950404 C-908.28521692 1177.00237604 -910.96581695 1174.31476079 -913.64648438 1171.62695312 C-915.5826413 1169.69486326 -917.52101165 1167.76499921 -919.45924377 1165.83499146 C-924.16238684 1161.14897956 -928.85738504 1156.45488991 -933.54934198 1151.75768034 C-937.36662451 1147.93634369 -941.18665959 1144.11777929 -945.00863457 1140.30113602 C-945.82698675 1139.48390647 -945.82698675 1139.48390647 -946.6618713 1138.65016723 C-947.77048702 1137.54308312 -948.87910611 1136.43600238 -949.98772853 1135.32892497 C-960.36690422 1124.96345416 -970.73650707 1114.58844829 -981.10308634 1104.21038194 C-990.56686468 1094.73667682 -1000.04202206 1085.27444853 -1009.52272219 1075.81768028 C-1019.27936706 1066.08547672 -1029.02854106 1056.34584773 -1038.76965326 1046.59809649 C-1044.22985434 1041.13441391 -1049.69283372 1035.67358475 -1055.16356087 1030.22043991 C-1059.82130329 1025.57748268 -1064.47183431 1020.92744205 -1069.11350972 1016.26842014 C-1071.47729109 1013.89617739 -1073.84503858 1011.52831455 -1076.21967316 1009.16690826 C-1088.13165546 997.31620038 -1099.27561676 986.000327 -1105.85327148 970.26611328 C-1106.1690918 969.55841797 -1106.48491211 968.85072266 -1106.81030273 968.12158203 C-1107.77188035 965.89918066 -1108.64306906 963.66394743 -1109.47827148 961.39111328 C-1109.76669922 960.6111499 -1110.05512695 959.83118652 -1110.35229492 959.02758789 C-1112.9400206 950.97902255 -1113.00288791 943.0048141 -1112.97924805 934.63208008 C-1112.97827982 932.22435164 -1113.01993513 929.81986532 -1113.06420898 927.41259766 C-1113.1711729 913.63384448 -1110.15693077 901.40937857 -1103.72827148 889.14111328 C-1103.39029541 888.48473877 -1103.05231934 887.82836426 -1102.70410156 887.15209961 C-1090.65525172 864.45940899 -1070.46149217 848.61073722 -1046.12670898 840.93017578 C-1024.71964484 835.01564672 -999.41688556 836.58648349 -979.47827148 846.39111328 C-978.56682373 846.83463135 -978.56682373 846.83463135 -977.63696289 847.28710938 C-969.81610736 851.13198832 -962.64489267 855.11576074 -956.47827148 861.39111328 C-955.67389648 862.19548828 -954.86952148 862.99986328 -954.04077148 863.82861328 C-953.19514648 864.67423828 -952.34952148 865.51986328 -951.47827148 866.39111328 C-949.98252965 867.70846389 -948.48210188 869.02050381 -946.97827148 870.32861328 C-944.34776581 872.6411936 -941.91670324 874.90557359 -939.72827148 877.64111328 C-937.60280609 880.43415098 -937.60280609 880.43415098 -934.97827148 882.39111328 C-931.98310287 884.78724817 -929.86312373 887.39301331 -927.47827148 890.39111328 C-926.29330831 885.54586124 -926.14482421 880.69902915 -925.90014648 875.73876953 C-925.79377204 873.76345685 -925.68638852 871.78819832 -925.578125 869.81298828 C-925.52165802 868.7759375 -925.46519104 867.73888672 -925.40701294 866.67041016 C-923.79638903 837.68412955 -920.37632131 809.19572671 -915.36499023 780.60595703 C-914.78412652 777.27073428 -914.26066651 773.93783314 -913.81030273 770.58251953 C-912.05031051 757.50886738 -909.18988724 744.77000337 -906.19702148 731.93408203 C-905.02039831 726.87427465 -903.95617156 721.80785013 -902.97045898 716.70751953 C-901.66574199 710.07722424 -899.99332788 703.62574411 -898.10327148 697.14111328 C-897.48209584 694.97354067 -896.86231728 692.80556722 -896.24389648 690.63720703 C-895.94290039 689.58259277 -895.6419043 688.52797852 -895.33178711 687.44140625 C-894.1019924 683.04636762 -892.97848714 678.62631067 -891.85327148 674.20361328 C-890.12462026 667.46724901 -888.01857675 661.01657709 -885.58764648 654.49658203 C-884.60391356 651.74282262 -883.81485498 649.0369305 -883.10327148 646.20361328 C-881.52023102 640.07160595 -879.251833 634.21552969 -877.02563477 628.29516602 C-875.53441608 624.31371475 -874.10443818 620.36958316 -872.97827148 616.26611328 C-871.4847745 610.97434003 -869.29910478 605.9833293 -867.17016602 600.92333984 C-865.24620417 596.32895547 -863.48728383 591.72165516 -861.85327148 587.01611328 C-860.0735759 581.91548248 -858.02712495 577.05742689 -855.72827148 572.17236328 C-854.34705584 569.09915848 -853.15800633 565.98440399 -851.97827148 562.82861328 C-850.17585515 558.05585976 -848.13324022 553.56027417 -845.78686523 549.03564453 C-844.26136087 545.95275959 -842.93345045 542.81307851 -841.60327148 539.64111328 C-838.53669456 532.39141092 -835.0524535 525.40106936 -831.47827148 518.39111328 C-830.49793614 516.41252523 -829.51872772 514.43337833 -828.54077148 512.45361328 C-826.02143578 507.41494187 -823.39813303 502.43597935 -820.73168945 497.47412109 C-818.74683531 493.77896392 -816.78578947 490.07285722 -814.84936523 486.35205078 C-814.1808252 485.07019897 -814.1808252 485.07019897 -813.4987793 483.76245117 C-812.62681298 482.08862719 -811.75755936 480.41338655 -810.89135742 478.73657227 C-808.96821521 475.05158115 -807.05414497 471.66811209 -804.47827148 468.39111328 C-803.84198045 467.17826466 -803.23724004 465.94831877 -802.66577148 464.70361328 C-800.74975178 460.74677566 -798.39914227 457.23328245 -795.91577148 453.61376953 C-794.58877478 451.56197299 -793.51557034 449.53719542 -792.47827148 447.32861328 C-790.72728464 443.65226746 -788.47181206 440.65000042 -785.97827148 437.44580078 C-783.97467548 434.70129167 -782.42314337 431.78855854 -780.81420898 428.80126953 C-776.66736351 421.31997228 -771.79326968 414.35177589 -766.71655273 407.48095703 C-764.04333682 403.79070609 -761.4799229 400.03253773 -758.91577148 396.26611328 C-755.45330562 391.18991631 -751.907905 386.24579582 -748.07202148 381.44189453 C-746.36822034 379.24950336 -744.79728258 376.99422146 -743.22827148 374.70361328 C-739.07232859 368.70572687 -734.55171929 363.01723745 -730.00463867 357.31445312 C-728.38338683 355.27155133 -726.7778517 353.21690458 -725.17358398 351.16064453 C-724.08788426 349.77894725 -723.00195238 348.39743234 -721.91577148 347.01611328 C-721.14680542 346.02478394 -721.14680542 346.02478394 -720.36230469 345.01342773 C-719.11360675 343.43516266 -717.8014075 341.90751636 -716.47827148 340.39111328 C-715.81827148 340.39111328 -715.15827148 340.39111328 -714.47827148 340.39111328 C-714.23077148 339.66923828 -713.98327148 338.94736328 -713.72827148 338.20361328 C-712.35557557 335.11504747 -710.75473852 332.88099911 -708.47827148 330.39111328 C-707.81827148 330.39111328 -707.15827148 330.39111328 -706.47827148 330.39111328 C-706.20885742 329.80330078 -705.93944336 329.21548828 -705.66186523 328.60986328 C-704.47529756 326.38553839 -703.22030289 324.76364708 -701.54077148 322.89111328 C-700.92331055 322.20017578 -700.30584961 321.50923828 -699.66967773 320.79736328 C-696.63430826 317.46440857 -693.58846591 314.14114684 -690.53613281 310.82373047 C-686.11228005 306.01045673 -681.78204687 301.12360761 -677.56811523 296.12548828 C-676.9403418 295.38814453 -676.31256836 294.65080078 -675.66577148 293.89111328 C-675.10245117 293.22080078 -674.53913086 292.55048828 -673.95874023 291.85986328 C-672.47827148 290.39111328 -672.47827148 290.39111328 -670.47827148 290.39111328 C-670.20622391 289.79407593 -669.93417633 289.19703857 -669.65388489 288.58190918 C-668.50282197 286.43686395 -667.38226447 285.04725916 -665.66845703 283.33837891 C-665.10414474 282.77098999 -664.53983246 282.20360107 -663.9584198 281.61901855 C-663.04592216 280.71729919 -663.04592216 280.71729919 -662.11499023 279.79736328 C-661.48599319 279.16882446 -660.85699615 278.54028564 -660.2089386 277.8927002 C-658.87896209 276.56574062 -657.54656011 275.24120821 -656.21191406 273.91894531 C-654.17840975 271.90363845 -652.15296285 269.88050401 -650.12866211 267.85595703 C-648.83290783 266.56512081 -647.53669856 265.27474112 -646.23999023 263.98486328 C-645.63773117 263.38371704 -645.03547211 262.7825708 -644.41496277 262.16320801 C-641.23984395 259.02339399 -638.00831202 256.13726062 -634.47827148 253.39111328 C-632.78893226 251.74743188 -631.12567224 250.07682568 -629.47827148 248.39111328 C-622.9177468 241.68919797 -616.20854521 235.43447127 -608.72827148 229.76611328 C-605.42828725 227.24458687 -603.04390837 224.66451207 -600.47827148 221.39111328 C-598.49226812 220.03702008 -596.49009606 218.70653704 -594.47827148 217.39111328 C-593.2325891 216.34802539 -592.004701 215.28348923 -590.79077148 214.20361328 C-582.4177841 206.75920909 -573.61081969 199.91446593 -564.69433594 193.14111328 C-559.90922469 189.50268693 -555.19656429 185.79934728 -550.55639648 181.97705078 C-548.29302444 180.24974054 -545.92041556 178.85179914 -543.47827148 177.39111328 C-542.10666718 176.35122134 -540.7525176 175.28794876 -539.41577148 174.20361328 C-534.914471 170.6519227 -530.21445713 167.49012491 -525.42358398 164.34423828 C-522.88045148 162.65781089 -520.39429139 160.9201206 -517.91577148 159.14111328 C-512.1229243 155.04535226 -506.09544354 151.31912141 -500.07763672 147.56591797 C-499.28429932 147.06995117 -498.49096191 146.57398438 -497.67358398 146.06298828 C-496.96218262 145.62051758 -496.25078125 145.17804688 -495.51782227 144.72216797 C-494.12136401 143.81080929 -492.75714178 142.8486372 -491.42456055 141.84619141 C-488.60922428 139.74139911 -485.54399895 138.09665948 -482.47827148 136.39111328 C-475.6572882 132.53507047 -468.8727414 128.67100966 -462.22827148 124.51611328 C-450.84335384 117.45774169 -439.08037147 111.08526193 -427.06030273 105.18017578 C-422.155969 102.75503195 -417.33766605 100.16551305 -412.51318359 97.58618164 C-399.6464647 90.71969586 -399.6464647 90.71969586 -393.72827148 88.51611328 C-389.90092819 87.02380053 -386.26213581 85.32125813 -382.60327148 83.45361328 C-377.62724693 80.91781588 -372.58818387 78.71115581 -367.41577148 76.60986328 C-364.54527139 75.41891111 -361.73252552 74.14096459 -358.91577148 72.82861328 C-354.49386688 70.79453716 -350.02399741 69.10758121 -345.43530273 67.49267578 C-340.88778919 65.79862186 -336.46794353 63.82300312 -332.03295898 61.85595703 C-328.65915246 60.46565215 -325.28304814 59.29888843 -321.81665039 58.17016602 C-317.91486747 56.87025066 -314.07765499 55.39981466 -310.22827148 53.95361328 C-303.80563916 51.56210159 -297.37664859 49.3707389 -290.80249023 47.42626953 C-286.00323248 45.93178856 -281.283271 44.22464708 -276.5637207 42.49633789 C-272.66369276 41.08708801 -268.79797344 39.93613036 -264.75830078 38.97216797 C-260.88215391 37.98435026 -257.06942206 36.78546289 -253.2421875 35.62475586 C-241.22861212 31.98337717 -229.20906791 28.7622012 -216.97241211 25.9765625 C-214.42807742 25.37933124 -211.89854405 24.73905087 -209.36889648 24.08251953 C-208.51674561 23.86233154 -207.66459473 23.64214355 -206.78662109 23.4152832 C-205.2233634 23.00868023 -203.66143301 22.59690005 -202.1015625 22.17749023 C-196.00383471 20.60312893 -189.85222178 19.58993746 -183.64141846 18.58653259 C-178.24234303 17.70668506 -172.87566151 16.71846672 -167.51342773 15.63720703 C-166.77395401 15.48898499 -166.03448029 15.34076294 -165.27259827 15.18804932 C-162.28178018 14.58704448 -159.29161981 13.98324067 -156.30371094 13.36791992 C-146.29816144 11.3144078 -136.38939151 9.84412195 -126.22265625 8.86743164 C-121.582878 8.41772777 -116.96854589 7.83134845 -112.34936523 7.20751953 C-110.77971853 6.99972574 -109.21005694 6.79204443 -107.64038086 6.58447266 C-105.32363241 6.2769523 -103.00756893 5.96640746 -100.69287109 5.64379883 C-67.31122146 1.01790469 -33.65858344 -0.12182944 0 0 Z " fill="#282828" transform="translate(1112.478271484375,-0.39111328125)"/>
<path d="M0 0 C0.76957031 0.40863281 1.53914063 0.81726563 2.33203125 1.23828125 C22.59780946 12.58876803 36.56279029 34.62009895 42.99609375 56.3671875 C44.94024612 63.82752338 46.12558916 71.08337018 46.12304783 78.811553 C46.12420167 79.46290029 46.12535552 80.11424757 46.12654433 80.78533265 C46.12918253 82.95891962 46.12471202 85.13243189 46.12025452 87.30601501 C46.12069079 88.88360552 46.12156673 90.46119595 46.12284368 92.03878599 C46.1250776 96.36697946 46.12108243 100.69514813 46.11606562 105.02333844 C46.11174549 109.69333401 46.11320866 114.36332819 46.1139679 119.0333252 C46.11449214 127.12213916 46.11135573 135.21094506 46.10573006 143.299757 C46.09760158 154.99480872 46.09499845 166.68985654 46.09374207 178.38491077 C46.09155367 197.35955535 46.08489933 216.33419564 46.07543945 235.30883789 C46.06625985 253.7404783 46.0591817 272.17211753 46.05493164 290.60375977 C46.05466892 291.73996602 46.05440619 292.87617227 46.05413551 294.04680901 C46.05283047 299.74684571 46.05156676 305.44688242 46.05032361 311.14691913 C46.0399576 358.43128239 46.02234504 405.71564099 46 453 C46.81106848 452.99848112 47.62213697 452.99696224 48.45778328 452.99539733 C96.55729503 452.90583218 144.65679791 452.83722706 192.75637639 452.79573868 C198.53525693 452.79073602 204.31413729 452.78555871 210.09301758 452.78027344 C211.24346022 452.7792242 212.39390287 452.77817495 213.57920741 452.77709392 C232.19269643 452.75970159 250.8061359 452.72817035 269.41959555 452.69138882 C288.52704457 452.65394679 307.63446768 452.63175725 326.74195188 452.62364602 C338.52672672 452.61816503 350.31136147 452.60087067 362.09609317 452.56833413 C370.1837505 452.54714599 378.2713357 452.54080969 386.35901875 452.54599449 C391.02111147 452.54854957 395.68295987 452.54470806 400.34500885 452.5231781 C404.62225008 452.50357055 408.89908498 452.50282105 413.17634576 452.51640442 C414.71496871 452.51808074 416.25361806 452.51312744 417.79218984 452.50046727 C431.81240991 452.39191043 444.19771939 455.21414637 457 461 C457.79535156 461.34546875 458.59070312 461.6909375 459.41015625 462.046875 C481.42969409 472.23658189 497.32514247 492.0582216 506.06347656 514.29467773 C507.58890318 518.70115645 508.46017949 523.16206008 509.25 527.75 C509.41838379 528.71228516 509.58676758 529.67457031 509.76025391 530.66601562 C513.26695684 551.85545461 510.33353338 574.53367074 499 593 C498.25363281 594.31291016 498.25363281 594.31291016 497.4921875 595.65234375 C493.2141611 603.09969337 488.13795118 609.01943218 482 615 C481.175 615.845625 480.35 616.69125 479.5 617.5625 C475.1430036 621.81057149 470.70209521 624.86015501 465.359375 627.71484375 C463.8865609 628.51708852 462.43342409 629.35801352 461.015625 630.25390625 C456.22199349 633.217411 451.29850579 635.05144374 445.9375 636.6875 C445.29619141 636.88988281 444.65488281 637.09226562 443.99414062 637.30078125 C430.07789216 641.31894731 415.55834883 641.29250952 401.20890808 641.26069641 C399.25348351 641.26372314 397.29806012 641.26761522 395.34263879 641.27228898 C390.01110337 641.28251042 384.67963564 641.28040219 379.34809482 641.27610838 C373.58176198 641.27363047 367.81544499 641.28266848 362.04911804 641.29014587 C350.7685209 641.30286523 339.4879476 641.30469003 328.20734449 641.30234561 C319.03406857 641.30055926 309.86079986 641.30231889 300.6875248 641.30657005 C298.72572331 641.30746284 298.72572331 641.30746284 296.72428948 641.30837366 C294.06696492 641.30958546 291.40964036 641.3107996 288.7523158 641.31201603 C270.92306088 641.31995154 253.09380848 641.32372653 235.26455212 641.31969929 C234.56831176 641.31954291 233.8720714 641.31938654 233.15473285 641.31922542 C229.626453 641.31841972 226.09817316 641.31757395 222.56989332 641.31671212 C221.86925011 641.31654103 221.16860689 641.31636994 220.44673207 641.31619367 C219.02986406 641.31584701 217.61299605 641.31549848 216.19612805 641.31514808 C194.15376681 641.3097919 172.11144558 641.31772182 150.0690918 641.33618164 C125.26558151 641.35692985 100.46209623 641.36758794 75.65857679 641.36360615 C62.53993495 641.36169681 49.42132957 641.36415574 36.30269432 641.37832069 C25.13505486 641.39025758 13.96747428 641.39161348 2.79983398 641.37953053 C-2.89164322 641.37365817 -8.58301282 641.37249682 -14.27448273 641.38453293 C-19.49618381 641.39544677 -24.71768816 641.39222347 -29.93938025 641.37827124 C-31.8167511 641.37563939 -33.69413764 641.37794262 -35.57149301 641.38600711 C-62.91197634 641.49519344 -90.55989962 636.86432524 -110.88671875 617.04296875 C-112.98744268 614.93427067 -112.98744268 614.93427067 -115.4921875 613.08984375 C-131.76556244 599.52869797 -140.84912482 574.82809025 -142.79652464 554.26219022 C-143.26068193 546.82065331 -143.14047494 539.35654608 -143.13371277 531.90351868 C-143.13558246 529.9504227 -143.1378838 527.99732709 -143.14057809 526.04423207 C-143.14668293 520.69143451 -143.14656405 515.3386526 -143.14538372 509.98585236 C-143.14517938 504.20722535 -143.15070164 498.42860332 -143.15544128 492.64997864 C-143.16374118 481.3338113 -143.16649583 470.01764918 -143.16705366 458.70147905 C-143.16752914 449.50133001 -143.16958545 440.30118267 -143.17275429 431.10103416 C-143.18012688 409.25072005 -143.1862793 387.40040727 -143.18575573 365.55009174 C-143.18574015 364.85175442 -143.18572457 364.15341709 -143.18570852 363.43391803 C-143.18562542 359.89470137 -143.18552638 356.35548472 -143.18542381 352.81626806 C-143.18540387 352.11340602 -143.18538392 351.41054398 -143.18536337 350.68638308 C-143.18532294 349.26502534 -143.18528114 347.8436676 -143.18523798 346.42230986 C-143.18462538 324.31384127 -143.19213001 302.20538803 -143.20581055 280.09692383 C-143.22118557 255.24002915 -143.22977591 230.38314455 -143.22884732 205.52624482 C-143.22851555 192.37187801 -143.23125392 179.2175285 -143.24202538 166.06316566 C-143.25113794 154.86307198 -143.2532994 143.66300344 -143.24651595 132.46290765 C-143.24325459 126.75173578 -143.24318026 121.04061214 -143.2518692 115.32944489 C-143.25975199 110.09418307 -143.25828461 104.8590076 -143.24958507 99.62374785 C-143.248054 97.73684716 -143.24985131 95.84993997 -143.25544515 93.96304695 C-143.30223006 77.05234378 -141.57652832 62.056258 -136 46 C-135.73832031 45.13117187 -135.47664062 44.26234375 -135.20703125 43.3671875 C-129.47743241 26.20747524 -113.15265776 8.06329855 -97.125 -0.0625 C-96.45339844 -0.37445313 -95.78179688 -0.68640625 -95.08984375 -1.0078125 C-92.97730697 -1.97789309 -92.97730697 -1.97789309 -90.94140625 -3.1796875 C-63.02136966 -18.76071312 -26.91751924 -15.7478852 0 0 Z " fill="#282828" transform="translate(1072,478)"/>
</svg>
